<svg width="577" height="432" viewBox="0 0 152.665 114.3" xml:space="preserve" xmlns="http://www.w3.org/2000/svg">
  <g transform="translate(-32.094 -85.794)">
    <path style="fill:#4faeea" d="m48.154 200.913c-1.31.07-3.255.02-4.323-.111-1.068-.132-2.937-.583-4.152-1.002s-3.136-1.339-4.267-2.044-2.843-2.06-3.804-3.013-2.116-2.274-2.567-2.938c-.45-.664-1.304-2.167-1.896-3.342-.592-1.174-1.245-2.893-1.451-3.82-.207-.927-.45-2.52-.543-3.54-.092-1.02-.041-2.985.112-4.366.154-1.381.533-3.285.841-4.23.309-.947.954-2.506 1.433-3.467.48-.96 1.505-2.585 2.278-3.61.773-1.026 4.085-4.69 7.359-8.143s8.037-8.466 10.583-11.14c2.547-2.672 7.13-7.454 10.187-10.625s6.915-7.283 8.577-9.137 3.805-3.952 4.762-4.662c.958-.709 2.575-1.706 3.594-2.215 1.019-.51 2.626-1.18 3.572-1.492s2.672-.691 3.836-.844c1.165-.152 3.035-.204 4.156-.115s3.086.464 4.366.833c1.28.37 3.055 1.071 3.946 1.559.89.488 2.329 1.427 3.197 2.087s2.58 2.26 3.805 3.554c1.224 1.294 2.634 3.037 3.132 3.873s1.237 2.455 1.642 3.6c.405 1.144.875 3.122 1.044 4.395.177 1.332.232 3.161.128 4.309a40 40 0 01-.568 3.835c-.213 1.012-.902 2.919-1.531 4.237s-1.726 3.171-2.438 4.117-10.463 10.865-21.67 22.042c-11.206 11.177-21.089 20.863-21.961 21.526-.872.662-2.273 1.551-3.113 1.975s-2.508 1-3.706 1.279c-1.198.28-3.25.565-4.56.635m-.794-4.963c2.548-.082 3.566-.237 5.153-.786 1.087-.377 2.754-1.218 3.704-1.869.95-.65 4.235-3.72 7.3-6.819 3.066-3.1 6.83-6.955 8.365-8.567s2.996-3.243 3.245-3.624c.305-.466.376-.83.217-1.115-.13-.233-5.25-5.468-11.376-11.635s-11.409-11.356-11.74-11.532c-.566-.304-1.05.133-8.695 7.85-4.452 4.494-8.723 9.001-9.49 10.015-.768 1.015-1.738 2.563-2.155 3.44-.418.877-.953 2.429-1.189 3.447-.24 1.034-.426 2.963-.422 4.366.004 1.72.18 3.14.558 4.498.304 1.091.954 2.699 1.446 3.572.491.873 1.364 2.15 1.938 2.838.575.687 1.682 1.794 2.461 2.46.78.664 2.056 1.52 2.837 1.903.78.382 2.15.912 3.044 1.177 1.29.383 2.278.461 4.8.38" transform="translate(12.118 -26.654)"/>
    <path style="fill:#265d91" d="m119.883 216.76c-19.48.049-26.923-.017-28.3-.249-1.148-.193-2.715-.735-4.07-1.406-1.375-.681-2.834-1.682-3.884-2.665-.925-.865-2.183-2.342-2.795-3.281s-1.426-2.635-1.808-3.767c-.683-2.025-.697-2.204-.785-10.493l-.09-8.434 4.977-5.014c2.738-2.758 5.3-5.184 5.693-5.391.523-.276 1.75-.377 4.592-.377h3.877l3.1-3.109c1.705-1.71 6.068-6.145 9.695-9.857s7.753-7.968 9.166-9.459l2.57-2.71h4.1c2.952 0 4.18-.093 4.386-.33.157-.183.668-.977 1.135-1.767.522-.882 1.34-1.77 2.125-2.307.7-.48 1.713-.995 2.248-1.143.536-.15 1.519-.272 2.184-.272.666-.001 1.766.188 2.446.42s1.826.951 2.547 1.6c.756.68 1.625 1.817 2.052 2.687.601 1.224.74 1.859.734 3.36-.005 1.302-.17 2.211-.557 3.057-.302.662-.943 1.652-1.424 2.2-.48.547-1.448 1.286-2.15 1.642-.7.355-1.881.776-2.623.935-.994.213-1.674.209-2.585-.016-.68-.168-1.866-.72-2.635-1.226a8.4 8.4 0 01-2.323-2.366l-.925-1.447h-7.036l-2.097 2.181c-1.153 1.2-6.66 6.826-12.238 12.502l-10.141 10.32-5.866.132-5.866.133v12.964l5.452.072 5.451.071 9.498-9.729c5.223-5.35 9.688-9.872 9.921-10.047.26-.194 2.028-.39 4.56-.502l4.136-.185.551-1.14c.304-.626.982-1.516 1.509-1.979.526-.462 1.56-1.12 2.297-1.464.972-.453 1.812-.624 3.06-.626 1.347-.002 2.067.162 3.323.756.972.46 1.986 1.206 2.577 1.897.536.626 1.225 1.803 1.53 2.615.406 1.078.529 1.906.456 3.07-.06.98-.334 2.052-.708 2.779-.335.65-.986 1.585-1.447 2.075-.46.49-1.55 1.235-2.424 1.654-1.229.589-1.963.761-3.25.761-.914 0-2.104-.184-2.645-.409s-1.429-.716-1.973-1.092c-.544-.375-1.404-1.308-1.912-2.073s-1.114-1.465-1.348-1.554c-.233-.09-1.576-.155-2.983-.145-1.406.01-2.742.1-2.968.199s-4.415 4.297-9.309 9.329-9.353 9.497-9.908 9.922l-1.01.772-6.218.133-6.218.132.02 1.766c.017 1.428.183 2.096.87 3.492.517 1.05 1.321 2.14 2.054 2.785.662.583 1.704 1.302 2.314 1.598s1.748.658 2.527.806c.89.169 9.528.263 23.274.253 12.022-.008 23.193-.111 24.825-.229 2.395-.172 3.246-.35 4.41-.919.88-.431 2.058-1.365 3.026-2.4 1.017-1.086 1.807-2.244 2.205-3.232l.621-1.539.08-28.046c.071-25.576.039-28.193-.366-29.719-.269-1.01-.836-2.194-1.433-2.99-.544-.723-1.468-1.667-2.053-2.098s-1.583-.988-2.218-1.24c-1.038-.412-2.859-.472-18.219-.594l-17.066-.136-.2-1.82c-.111-1-.439-2.355-.728-3.01-.29-.654-.527-1.354-.527-1.553 0-.305 2.94-.364 18.152-.364 15.645 0 18.374.058 19.756.416.883.229 2.276.754 3.095 1.168s2.107 1.24 2.86 1.835 1.964 1.93 2.69 2.964c.727 1.035 1.576 2.552 1.886 3.372s.75 2.443.98 3.607c.362 1.842.419 5.855.436 30.956l.019 28.84-.72 2.116c-.397 1.165-1.171 2.876-1.72 3.804-.55.928-1.856 2.488-2.903 3.467-1.194 1.116-2.624 2.133-3.836 2.726-1.064.52-2.648 1.074-3.521 1.23-1.041.185-10.682.306-28.02.349m13.81-37.373c.481 0 1.218-.177 1.638-.395.421-.217.95-.66 1.178-.985s.413-1.13.413-1.795c0-.663-.186-1.47-.413-1.794s-.757-.768-1.178-.985c-.42-.218-1.157-.394-1.637-.392s-1.16.151-1.51.331c-.349.18-.87.642-1.155 1.028-.325.438-.515 1.101-.505 1.772.008.589.149 1.322.313 1.628.164.307.677.789 1.14 1.071.464.283 1.237.515 1.717.515m4.23-23.293c.186.006.75-.161 1.25-.37.502-.21 1.153-.776 1.446-1.258.294-.481.535-1.313.535-1.847 0-.66-.218-1.233-.68-1.781-.374-.446-1.133-.945-1.686-1.11-.76-.229-1.237-.225-1.96.014-.526.173-1.208.634-1.515 1.024-.453.573-.538.972-.446 2.093.07.861.305 1.6.621 1.954.28.313.865.727 1.302.92.436.193.946.355 1.133.36" transform="translate(12.118 -26.654)"/>      
      </g>
</svg>
